<svg width="217" height="85" viewBox="0 0 217 85" fill="none" xmlns="http://www.w3.org/2000/svg">
<g clip-path="url(#clip0)">
<path d="M15.5549 73.7797L10.5793 73.467L12.2379 80.501L17.8768 78.3127L15.5549 73.7797Z" fill="#FFB9B9"/>
<path d="M61.1643 60.6495L49.5547 50.0204L42.9204 54.8661L29.8181 69.7156L31.3108 71.9038L47.2326 61.7437L58.013 75.03L68.2959 70.1845L61.1643 60.6495Z" fill="#2F2E41"/>
<path opacity="0.1" d="M61.1643 60.6495L49.5547 50.0204L42.9204 54.8661L29.8181 69.7156L31.3108 71.9038L47.2326 61.7437L58.013 75.03L68.2959 70.1845L61.1643 60.6495Z" fill="black"/>
<path d="M62.1595 67.6835L60.6668 68.7777L48.5596 64.8699L45.7401 63.7757L40.1011 64.8699C40.1011 64.8699 40.1011 60.4932 45.4084 60.6495L50.8815 61.9L57.3498 62.3689L62.1595 67.6835Z" fill="#FFB9B9"/>
<path d="M72.94 79.2506L69.2912 81.4389H64.979L44.9108 74.4049L15.5549 79.4068L14.7256 73.467L41.5938 62.3691L65.145 69.7156L72.94 79.2506Z" fill="#2F2E41"/>
<path d="M49.389 51.4272L46.9012 51.8961L46.359 51.3C45.9298 50.8281 45.6579 50.2474 45.5774 49.6305C45.4968 49.0136 45.6111 48.388 45.906 47.8321L52.8719 39.235C52.8719 39.235 54.8621 35.0146 58.0133 36.734C61.1645 38.4535 55.3596 41.267 55.3596 41.267L51.8767 46.4253L52.2084 49.0826L49.389 51.4272Z" fill="#FFB9B9"/>
<path d="M65.1448 41.2671C68.7171 41.2671 71.613 38.5378 71.613 35.171C71.613 31.8042 68.7171 29.0749 65.1448 29.0749C61.5725 29.0749 58.6765 31.8042 58.6765 35.171C58.6765 38.5378 61.5725 41.2671 65.1448 41.2671Z" fill="#FFB9B9"/>
<path d="M62.2424 39.6258L65.2278 46.3472L72.3594 43.5336C72.3594 43.5336 70.0375 38.219 70.0375 38.0627C70.0375 37.9064 62.2424 39.6258 62.2424 39.6258Z" fill="#FFB9B9"/>
<path d="M81.881 59.5101C81.881 63.1892 81.2659 66.8453 80.0583 70.3439L79.574 71.7476L77.2521 81.7515L74.7643 82.3767L72.9399 80.1884L69.2912 77.6874L66.6375 73.6233L64.362 70.0501L63.6522 68.934L61.1644 57.2108L51.7108 52.2088L48.5596 51.7399L49.223 50.0205L52.0425 46.4254L54.862 46.1127L55.6912 45.4875L56.3546 45.8001L59.0083 44.3933L59.8376 44.7059L64.6871 45.1311L67.6326 44.5496L71.8685 42.4066L73.6033 42.6739L79.574 47.3632C81.1004 51.2514 81.8815 55.3643 81.881 59.5101Z" fill="#575A89"/>
<path d="M12.1066 76.2C12.1066 76.2 13.5921 73.8272 12.9647 73.5502C12.3372 73.2732 9.67259 72.1688 9.67259 72.1688L5.76494 70.9483C5.76494 70.9483 0.126431 63.0505 0.00266438 69.9185C-0.121102 76.7866 4.10819 78.4376 4.10819 78.4376C4.10819 78.4376 7.8802 86.0882 10.0169 84.8682C12.1536 83.6482 14.2916 79.5069 14.2916 79.5069C14.2916 79.5069 10.4385 77.5548 12.1066 76.2Z" fill="#2F2E41"/>
<path opacity="0.1" d="M80.0715 58.1486L73.769 62.0564L64.362 70.05L63.6522 68.9339L61.6619 59.5554H62.1594L67.301 50.6458L80.0715 58.1486Z" fill="black"/>
<path d="M67.301 49.7079L62.1594 58.6175H60.3351L59.1742 61.7437L56.5205 62.3691L63.6521 69.7156L73.769 61.1185L80.0715 57.2107L67.301 49.7079Z" fill="#575A89"/>
<path d="M60.1139 30.6383L59.4131 30.8924C59.3053 30.8236 59.2132 30.7353 59.1421 30.6325C59.071 30.5297 59.0224 30.4146 58.9991 30.2939C58.9758 30.1732 58.9783 30.0493 59.0064 29.9295C59.0346 29.8097 59.0878 29.6964 59.163 29.5963L57.8679 29.5392C58.6993 28.4956 59.7563 27.6304 60.969 27.0006C62.1817 26.3709 63.5225 25.991 64.9027 25.8862C66.2828 25.7813 67.6709 25.9539 68.9749 26.3924C70.279 26.831 71.4694 27.5255 72.4674 28.4301C72.5264 28.2387 73.1691 28.6111 73.4316 28.9887C73.5197 28.6772 74.1224 30.1828 74.3356 31.247C74.4343 30.8926 74.8137 31.4646 74.4813 32.0135C74.6919 31.9845 74.7871 32.4924 74.624 32.7754C74.8544 32.6733 74.8156 33.2796 74.5658 33.6848C74.8946 33.6572 71.9725 37.9313 70.7895 40.4291C70.4459 38.9415 70.0597 37.3751 68.952 36.267C68.7637 36.0786 68.5575 35.9071 68.3517 35.7358L67.2383 34.8096C65.9437 33.7326 64.766 32.4033 63.0413 32.0008C61.856 31.7241 61.1066 31.6617 61.7526 30.4029C61.169 30.6325 60.624 30.9738 60.0352 31.1869C60.0431 31.0111 60.1254 30.8143 60.1139 30.6383Z" fill="#2F2E41"/>
<path d="M68.379 36.9686C69.0202 36.9686 69.54 36.4787 69.54 35.8744C69.54 35.2701 69.0202 34.7802 68.379 34.7802C67.7378 34.7802 67.218 35.2701 67.218 35.8744C67.218 36.4787 67.7378 36.9686 68.379 36.9686Z" fill="#FFB9B9"/>
<path d="M41.3855 11.2816H35.7722V16.5718H41.3855V11.2816Z" fill="#00CC14"/>
<path d="M44.7936 13.5488H37.9775V7.12488H44.7936V13.5488ZM38.2739 13.2695H44.4973V7.40418H38.2739V13.2695Z" fill="#3F3D56"/>
<path d="M16.3052 32.7195L14.7639 27.6325L9.36641 29.0851L10.9077 34.1721L16.3052 32.7195Z" fill="#00CC14"/>
<path d="M14.9279 36.4305L13.0564 30.2535L19.6105 28.4896L21.4821 34.6666L14.9279 36.4305ZM13.4227 30.4454L15.1315 36.0852L21.1157 34.4748L19.4069 28.8349L13.4227 30.4454Z" fill="#3F3D56"/>
<path d="M14.9102 9.02685L18.7429 5.16174L14.6418 1.54954L10.8091 5.41465L14.9102 9.02685Z" fill="#00CC14"/>
<path d="M10.8257 9.82555L15.4797 5.1322L20.4596 9.51845L15.8056 14.2118L10.8257 9.82555ZM15.4939 5.52697L11.2446 9.8122L15.7914 13.817L20.0407 9.53179L15.4939 5.52697Z" fill="#3F3D56"/>
<path d="M205.732 1.01315H153.575V0H129.925V1.01315H77.5529C77.0896 1.01315 76.6309 1.09915 76.2028 1.26625C75.7748 1.43335 75.3858 1.67827 75.0582 1.98703C74.7306 2.29579 74.4708 2.66234 74.2935 3.06575C74.1162 3.46916 74.0249 3.90154 74.0249 4.33819V71.648C74.0249 72.0847 74.1162 72.5171 74.2935 72.9205C74.4708 73.3239 74.7306 73.6905 75.0582 73.9992C75.3858 74.308 75.7748 74.5529 76.2028 74.72C76.6309 74.8871 77.0896 74.9731 77.5529 74.9731H205.732C206.668 74.9731 207.565 74.6228 208.227 73.9992C208.888 73.3756 209.26 72.5299 209.26 71.648V4.33819C209.26 3.90154 209.169 3.46916 208.992 3.06575C208.814 2.66234 208.554 2.29579 208.227 1.98703C207.899 1.67827 207.51 1.43335 207.082 1.26625C206.654 1.09915 206.195 1.01315 205.732 1.01315Z" fill="#3F3D56"/>
<path d="M204.53 6.88947H78.7549V73.7573H204.53V6.88947Z" fill="#00CC14"/>
<path d="M141.535 5.06577C142.248 5.06577 142.825 4.52145 142.825 3.85C142.825 3.17854 142.248 2.63422 141.535 2.63422C140.823 2.63422 140.245 3.17854 140.245 3.85C140.245 4.52145 140.823 5.06577 141.535 5.06577Z" fill="#00CC14"/>
<path opacity="0.1" d="M168.56 73.7573H78.7549V6.88947L168.56 73.7573Z" fill="black"/>
<path d="M98.4349 68.7535C105.112 68.7535 110.525 63.6521 110.525 57.3593C110.525 51.0664 105.112 45.965 98.4349 45.965C91.7578 45.965 86.345 51.0664 86.345 57.3593C86.345 63.6521 91.7578 68.7535 98.4349 68.7535Z" fill="#F2F2F2"/>
<path d="M101.126 65.9232C98.1519 65.9232 95.2444 65.0919 92.7713 63.5346C90.2982 61.9772 88.3706 59.7636 87.2324 57.1737C86.0942 54.5839 85.7963 51.7341 86.3766 48.9847C86.9569 46.2354 88.3892 43.7099 90.4924 41.7277C92.5956 39.7455 95.2752 38.3956 98.1924 37.8488C101.11 37.3019 104.133 37.5826 106.881 38.6553C109.629 39.7281 111.978 41.5447 113.63 43.8755C115.283 46.2063 116.165 48.9466 116.165 51.7498C116.16 55.5075 114.575 59.1101 111.755 61.7672C108.936 64.4243 105.113 65.9189 101.126 65.9232ZM101.126 37.7617C98.1908 37.7617 95.3212 38.5821 92.8805 40.1191C90.4397 41.6562 88.5374 43.8408 87.414 46.3968C86.2907 48.9528 85.9967 51.7653 86.5694 54.4788C87.1421 57.1922 88.5557 59.6846 90.6314 61.6409C92.7071 63.5972 95.3517 64.9294 98.2307 65.4691C101.11 66.0089 104.094 65.7319 106.806 64.6731C109.518 63.6144 111.836 61.8215 113.467 59.5212C115.098 57.2209 115.968 54.5164 115.968 51.7498C115.964 48.0412 114.399 44.4857 111.616 41.8633C108.834 39.241 105.061 37.7659 101.126 37.7617Z" fill="#3F3D56"/>
<path d="M182.631 42.9518H170.882V45.2655H182.631V42.9518Z" fill="#3F3D56"/>
<path d="M196.835 24.9378H156.678V25.9294H196.835V24.9378Z" fill="#3F3D56"/>
<path d="M196.835 28.0779H156.678V29.0695H196.835V28.0779Z" fill="#3F3D56"/>
<path d="M196.835 31.2179H156.678V32.2095H196.835V31.2179Z" fill="#3F3D56"/>
<path d="M196.835 34.358H156.678V35.3496H196.835V34.358Z" fill="#3F3D56"/>
<path d="M196.835 37.498H156.678V38.4896H196.835V37.498Z" fill="#3F3D56"/>
<path d="M196.834 8.24603H191.924V12.8735H196.834V8.24603Z" fill="#F2F2F2"/>
<path d="M199.114 15.0219H193.152V9.40283H199.114V15.0219ZM193.411 14.7776H198.855V9.64715H193.411V14.7776Z" fill="#3F3D56"/>
<path d="M212.792 72.5415H200.517V71.708C200.517 71.6863 200.512 71.6648 200.503 71.6447C200.495 71.6247 200.482 71.6065 200.465 71.5911C200.449 71.5758 200.43 71.5636 200.408 71.5553C200.387 71.547 200.364 71.5427 200.341 71.5427H196.133C196.11 71.5427 196.087 71.547 196.066 71.5553C196.044 71.5636 196.025 71.5758 196.009 71.5911C195.993 71.6065 195.98 71.6247 195.971 71.6447C195.962 71.6648 195.957 71.6863 195.957 71.708V72.5415H193.327V71.708C193.327 71.6863 193.323 71.6648 193.314 71.6447C193.305 71.6247 193.292 71.6065 193.276 71.5911C193.26 71.5758 193.24 71.5636 193.219 71.5553C193.198 71.547 193.175 71.5427 193.152 71.5427H188.943C188.92 71.5427 188.897 71.547 188.876 71.5553C188.855 71.5636 188.836 71.5758 188.819 71.5911C188.803 71.6065 188.79 71.6247 188.781 71.6447C188.772 71.6648 188.768 71.6863 188.768 71.708V72.5415H186.138V71.708C186.138 71.6863 186.133 71.6648 186.124 71.6447C186.115 71.6247 186.103 71.6065 186.086 71.5911C186.07 71.5758 186.051 71.5636 186.029 71.5553C186.008 71.547 185.985 71.5427 185.962 71.5427H181.754C181.731 71.5427 181.708 71.547 181.687 71.5553C181.665 71.5636 181.646 71.5758 181.63 71.5911C181.613 71.6065 181.601 71.6247 181.592 71.6447C181.583 71.6648 181.578 71.6863 181.578 71.708V72.5415H178.948V71.708C178.948 71.6863 178.944 71.6648 178.935 71.6447C178.926 71.6247 178.913 71.6065 178.897 71.5911C178.88 71.5758 178.861 71.5636 178.84 71.5553C178.819 71.547 178.796 71.5427 178.773 71.5427H174.564C174.541 71.5427 174.518 71.547 174.497 71.5553C174.476 71.5636 174.456 71.5758 174.44 71.5911C174.424 71.6065 174.411 71.6247 174.402 71.6447C174.393 71.6648 174.389 71.6863 174.389 71.708V72.5415H171.759V71.708C171.759 71.6863 171.754 71.6648 171.745 71.6447C171.736 71.6247 171.723 71.6065 171.707 71.5911C171.691 71.5758 171.672 71.5636 171.65 71.5553C171.629 71.547 171.606 71.5427 171.583 71.5427H167.375C167.352 71.5427 167.329 71.547 167.308 71.5553C167.286 71.5636 167.267 71.5758 167.251 71.5911C167.234 71.6065 167.221 71.6247 167.213 71.6447C167.204 71.6648 167.199 71.6863 167.199 71.708V72.5415H164.569V71.708C164.569 71.6863 164.564 71.6648 164.556 71.6447C164.547 71.6247 164.534 71.6065 164.518 71.5911C164.501 71.5758 164.482 71.5636 164.461 71.5553C164.439 71.547 164.417 71.5427 164.394 71.5427H160.185C160.162 71.5427 160.139 71.547 160.118 71.5553C160.097 71.5636 160.077 71.5758 160.061 71.5911C160.045 71.6065 160.032 71.6247 160.023 71.6447C160.014 71.6648 160.01 71.6863 160.01 71.708V72.5415H157.379V71.708C157.379 71.6863 157.375 71.6648 157.366 71.6447C157.357 71.6247 157.344 71.6065 157.328 71.5911C157.312 71.5758 157.292 71.5636 157.271 71.5553C157.25 71.547 157.227 71.5427 157.204 71.5427H124.237C124.214 71.5427 124.192 71.547 124.17 71.5553C124.149 71.5636 124.13 71.5758 124.113 71.5911C124.097 71.6065 124.084 71.6247 124.075 71.6447C124.067 71.6648 124.062 71.6863 124.062 71.708V72.5415H121.432V71.708C121.432 71.6863 121.427 71.6648 121.418 71.6447C121.41 71.6247 121.397 71.6065 121.38 71.5911C121.364 71.5758 121.345 71.5636 121.323 71.5553C121.302 71.547 121.279 71.5427 121.256 71.5427H117.048C117.025 71.5427 117.002 71.547 116.981 71.5553C116.959 71.5636 116.94 71.5758 116.924 71.5911C116.908 71.6065 116.895 71.6247 116.886 71.6447C116.877 71.6648 116.872 71.6863 116.872 71.708V72.5415H114.242V71.708C114.242 71.6863 114.238 71.6648 114.229 71.6447C114.22 71.6247 114.207 71.6065 114.191 71.5911C114.175 71.5758 114.155 71.5636 114.134 71.5553C114.113 71.547 114.09 71.5427 114.067 71.5427H109.858C109.835 71.5427 109.812 71.547 109.791 71.5553C109.77 71.5636 109.751 71.5758 109.734 71.5911C109.718 71.6065 109.705 71.6247 109.696 71.6447C109.687 71.6648 109.683 71.6863 109.683 71.708V72.5415H107.053V71.708C107.053 71.6863 107.048 71.6648 107.039 71.6447C107.03 71.6247 107.018 71.6065 107.001 71.5911C106.985 71.5758 106.966 71.5636 106.944 71.5553C106.923 71.547 106.9 71.5427 106.877 71.5427H102.669C102.646 71.5427 102.623 71.547 102.602 71.5553C102.58 71.5636 102.561 71.5758 102.545 71.5911C102.528 71.6065 102.516 71.6247 102.507 71.6447C102.498 71.6648 102.493 71.6863 102.493 71.708V72.5415H99.8631V71.708C99.8631 71.6863 99.8585 71.6648 99.8497 71.6447C99.8409 71.6247 99.828 71.6065 99.8117 71.5911C99.7954 71.5758 99.7761 71.5636 99.7548 71.5553C99.7335 71.547 99.7107 71.5427 99.6877 71.5427H95.4792C95.4562 71.5427 95.4334 71.547 95.4121 71.5553C95.3908 71.5636 95.3715 71.5758 95.3552 71.5911C95.3389 71.6065 95.326 71.6247 95.3172 71.6447C95.3084 71.6648 95.3038 71.6863 95.3038 71.708V72.5415H92.6735V71.708C92.6735 71.6863 92.669 71.6648 92.6602 71.6447C92.6513 71.6247 92.6384 71.6065 92.6221 71.5911C92.6059 71.5758 92.5865 71.5636 92.5653 71.5553C92.544 71.547 92.5212 71.5427 92.4982 71.5427H88.2896C88.2666 71.5427 88.2438 71.547 88.2225 71.5553C88.2013 71.5636 88.1819 71.5758 88.1656 71.5911C88.1494 71.6065 88.1364 71.6247 88.1276 71.6447C88.1188 71.6648 88.1143 71.6863 88.1143 71.708V72.5415H85.484V71.708C85.484 71.6863 85.4794 71.6648 85.4706 71.6447C85.4618 71.6247 85.4489 71.6065 85.4326 71.5911C85.4163 71.5758 85.397 71.5636 85.3757 71.5553C85.3544 71.547 85.3316 71.5427 85.3086 71.5427H81.1001C81.0771 71.5427 81.0543 71.547 81.033 71.5553C81.0117 71.5636 80.9924 71.5758 80.9761 71.5911C80.9598 71.6065 80.9469 71.6247 80.9381 71.6447C80.9293 71.6648 80.9247 71.6863 80.9247 71.708V72.5415H72.8584C71.7422 72.5415 70.6718 72.9594 69.8825 73.7032C69.0933 74.4471 68.6499 75.4559 68.6499 76.5079V78.3014C68.6499 79.3533 69.0933 80.3622 69.8825 81.106C70.6718 81.8499 71.7422 82.2677 72.8584 82.2677H212.792C213.908 82.2677 214.978 81.8499 215.767 81.106C216.557 80.3622 217 79.3533 217 78.3014V76.5079C217 75.4559 216.557 74.4471 215.767 73.7032C214.978 72.9594 213.908 72.5415 212.792 72.5415Z" fill="#3F3D56"/>
</g>
<defs>
<clipPath id="clip0">
<rect width="217" height="85" fill="white"/>
</clipPath>
</defs>
</svg>
